<?xml version="1.0" encoding="UTF-8"?>
<svg xmlns="http://www.w3.org/2000/svg" id="outline" viewBox="0 0 512 512" width="512" height="512">
<path style="fill: white;" d="M309.70557,178.41553a40.06892,40.06892,0,0,0,11.37255,17.24707l54.33106,48.29394a24.02494,24.02494,0,0,0,32.91553-.96777l13.332-13.332a7.99915,7.99915,0,0,0,0-11.31348L411.31348,208l2.34326-2.34326A7.99877,7.99877,0,0,0,416,200v-8a7.99977,7.99977,0,0,0-8-8H387.31348L366.707,163.39355l-22.95068-51.63916a40.02284,40.02284,0,0,0-29.15894-23.03833l3.05933-3.05932a7.99915,7.99915,0,0,0,0-11.31348,27.15054,27.15054,0,0,1-7.62549-14.81836l-.87939-5.27539a45.77469,45.77469,0,0,0-90.30372-.00049l-.87939,5.27637a27.15081,27.15081,0,0,1-7.62549,14.81787,7.99915,7.99915,0,0,0,0,11.31348l2.52448,2.52441a40.07662,40.07662,0,0,0-28.94928,16.56934l-24.46778,34.25488A39.77647,39.77647,0,0,0,152,162.25488V248a24.01734,24.01734,0,0,0,.48132,4.791A35.68411,35.68411,0,0,0,144,276v4H120a7.99968,7.99968,0,0,0-7.79492,6.20117l-24,104A7.99952,7.99952,0,0,0,96,400h54.76721l-6.43762,21.72705A8.00038,8.00038,0,0,0,152,432h4.18378l-11.61151,29.02881A8.00164,8.00164,0,0,0,144,464v24a7.99977,7.99977,0,0,0,8,8h80a7.99977,7.99977,0,0,0,8-8V472a7.99927,7.99927,0,0,0-3.2002-6.3999l-27.27-20.45264L225.78265,400H264a7.99952,7.99952,0,0,0,7.79492-9.79883l-16.59564-71.91443,7.342-20.39416,33.72192,128.14355A8.00076,8.00076,0,0,0,304,432h10.58374L328,465.54053V488a7.99977,7.99977,0,0,0,8,8h72a7.99977,7.99977,0,0,0,8-8V472a7.99927,7.99927,0,0,0-3.2002-6.3999l-29.93408-22.45069L304.40625,192.0791l4.927-14.78039Zm68.63769,19.24121A7.99877,7.99877,0,0,0,384,200h12.68652l-2.34326,2.34326a7.99915,7.99915,0,0,0,0,11.31348L404.68652,224l-7.67529,7.67529a8.00806,8.00806,0,0,1-10.97217.32227L331.7085,183.7041a24.03928,24.03928,0,0,1-6.82422-10.34863l-3.26563-9.79712,21.83106-13.09863,9.23974,20.7893a8.00057,8.00057,0,0,0,1.65381,2.40772ZM272,80a8,8,0,0,1-16,0V75.31348L259.31348,72H272Zm-16,22.6239a23.94217,23.94217,0,0,0,16,0V104a8,8,0,0,1-16,0ZM233.751,62.15576l.87939-5.27637a29.77478,29.77478,0,0,1,58.73926.00049l.87939,5.27539a43.06844,43.06844,0,0,0,6.95459,17.31836A30.41072,30.41072,0,0,1,288,86.94141V64a7.99977,7.99977,0,0,0-8-8H256a7.99877,7.99877,0,0,0-5.65674,2.34326l-8,8A7.99877,7.99877,0,0,0,240,72V86.94141a30.41038,30.41038,0,0,1-13.20361-7.46778A43.06917,43.06917,0,0,0,233.751,62.15576ZM168,162.25488a23.86711,23.86711,0,0,1,4.47021-13.9497l2.30359-3.2251,21.04718,15.7854-1.47772,1.47778A7.99877,7.99877,0,0,0,192,168v48a7.99877,7.99877,0,0,0,2.34326,5.65674L204.68652,232H200a7.99977,7.99977,0,0,0-8,8v16H176a8.00917,8.00917,0,0,1-8-8Zm40,9.05908,3.88092-3.8811a31.60235,31.60235,0,0,0,5.329,5.49585l5.68359,17.04981A97.85875,97.85875,0,0,0,208,211.92334ZM160,276a19.89773,19.89773,0,0,1,1.941-8.56689A23.864,23.864,0,0,0,176,272h12.69336l-2.37036,8H160Zm37.25757,156-3.46973,9.63818-27.9541,9.31787L173.4162,432ZM224,476v4H160V469.76587l38.55341-12.85108Zm-20.98236-60H162.71436l4.74066-16h41.32269Zm-96.961-32,20.30762-88H144v24h16V296h40v24h16V296h17.63574l20.30762,88Zm260.09985,59.32129-25.69982,10.27978L331.81616,432h30.80249ZM400,476v4H344V469.41626l30.79688-12.31885Zm-42.38135-60H310.167L272.09937,271.3418,279.52686,250.71,264.47314,245.29l-15.91638,44.2124-.76184-3.30127A7.99968,7.99968,0,0,0,240,280H216v-4a35.709,35.709,0,0,0-5.93439-19.81079l2.48419-8.38416A13.64441,13.64441,0,0,0,220,224.68652l-.151-.151A81.68747,81.68747,0,0,1,235.418,200h54.70062ZM299.5625,161.34375a7.997,7.997,0,0,0-3.15186,4.12646L290.23413,184h-52.4682l-6.17657-18.52979a7.99882,7.99882,0,0,0-3.15189-4.12646,15.64671,15.64671,0,0,1-2.38474-24.083l3.604-3.604-11.31348-11.31348-3.604,3.604a31.51175,31.51175,0,0,0-9.26581,22.15808l-21.39752-16.04822L196.938,114.05029A24.04788,24.04788,0,0,1,216.46777,104H240a24,24,0,0,0,48,0h19.2041a24.01918,24.01918,0,0,1,21.93115,14.25244l7.76734,17.47632-14.60095,8.76074a31.52168,31.52168,0,0,0-9.0409-18.54223l-3.604-3.604-11.31348,11.31348,3.604,3.604a15.6466,15.6466,0,0,1-2.38477,24.083Z"/></svg>
